DataType=double
version=3
OpenSimVersion=4.2
endheader
time	ground_force_r_vx	ground_force_r_vy	ground_force_r_vz	ground_force_r_px	ground_force_r_py	ground_force_r_pz	ground_force_l_vx	ground_force_l_vy	ground_force_l_vz	ground_force_l_px	ground_force_l_py	ground_force_l_pz	ground_torque_r_x	ground_torque_r_y	ground_torque_r_z	ground_torque_l_x	ground_torque_l_y	ground_torque_l_z
0.868	-154.7738950087362	42.34103781817682	0	0	0	0	0	0	0	0	0	0	0	0	-3.982867676822538	0	0	0
0.8693280265944089	-231.9452072652734	61.64939661549151	0	0	0	0	0	0	0	0	0	0	0	0	-5.922655725053343	0	0	0
0.8706560531888178	-321.4771002879532	85.59094772229551	0	0	0	0	0	0	0	0	0	0	0	0	-8.050093140518772	0	0	0
0.8719840797832267	-433.6242721291178	119.1866874668433	0	0	0	0	0	0	0	0	0	0	0	0	-10.54314397766433	0	0	0
0.8733121063776355	-599.6626541467773	175.5746643219084	0	0	0	0	0	0	0	0	0	0	0	0	-14.02076892916707	0	0	0
0.8746401329720443	-800.6247326766611	259.6633170759599	0	0	0	0	0	0	0	0	0	0	0	0	-17.76988080667563	0	0	0
0.8759681595664532	-967.8199956839386	362.6089854593509	0	0	0	0	0	0	0	0	0	0	0	0	-20.05291749102791	0	0	0
0.8772961861608621	-1081.021302500255	486.5367327921021	0	0	0	0	0	0	0	0	0	0	0	0	-20.73466415640905	0	0	0
0.878624212755271	-1257.362817932583	709.684020313663	0	0	0	0	0	0	0	0	0	0	0	0	-22.87294133390223	0	0	0
0.8799522393496799	-1558.062032846556	1172.747607506962	0	0	0	0	0	0	0	0	0	0	0	0	-24.9842090847124	0	0	0
0.8812802659440887	-2137.587646237299	2280.663252078288	0	0	0	0	0	0	0	0	0	0	0	0	-23.44703233202601	0	0	0
0.8826082925384976	-884.5090051865384	2215.780000945091	0	0	0	0	0	0	0	0	0	0	0	0	19.30978165167821	0	0	0
0.8839363191329065	-615.8263823986382	1741.204994390277	0	0	0	0	0	0	0	0	0	0	0	0	19.25599238348098	0	0	0
0.8852643457273154	-170.2893952802832	1578.225738671111	0	0	0	0	0	0	0	0	0	0	0	0	29.38160550511718	0	0	0
0.8865923723217243	-337.068695014033	1416.164728772868	0	0	0	0	0	0	0	0	0	0	0	0	19.61370999669883	0	0	0
0.8879203989161332	-198.217202603943	1296.070380272082	0	0	0	0	0	0	0	0	0	0	0	0	20.40284001065443	0	0	0
0.8892484255105421	-293.2069944093169	1123.884328964843	0	0	0	0	0	0	0	0	0	0	0	0	12.73975811335226	0	0	0
0.8905764521049508	-230.2996032766308	1023.294033436491	0	0	0	0	0	0	0	0	0	0	0	0	11.83008769162065	0	0	0
0.8919044786993597	-266.0086851421829	1009.298391635198	0	0	0	0	0	0	0	0	0	0	0	0	10.36396192893885	0	0	0
0.8932325052937686	-218.6967339243421	1021.204550671597	0	0	0	0	0	0	0	0	0	0	0	0	12.13621831972849	0	0	0
0.8945605318881775	-225.7641850622058	1003.639492054941	0	0	0	0	0	0	0	0	0	0	0	0	11.52231255305204	0	0	0
0.8958885584825864	-198.3437813491402	1002.532364490728	0	0	0	0	0	0	0	0	0	0	0	0	12.36080694697822	0	0	0
0.8972165850769953	-198.5446732277495	983.7052916915085	0	0	0	0	0	0	0	0	0	0	0	0	11.93445413087765	0	0	0
0.8985446116714041	-186.1112605432848	974.4778332914733	0	0	0	0	0	0	0	0	0	0	0	0	12.10387418863693	0	0	0
0.899872638265813	-190.0025949731041	958.0191963684845	0	0	0	0	0	0	0	0	0	0	0	0	11.58482440299937	0	0	0
0.9012006648602219	-188.1272842586026	948.4324876030602	0	0	0	0	0	0	0	0	0	0	0	0	11.38177490259048	0	0	0
0.9025286914546308	-197.0488590559223	937.1792166666961	0	0	0	0	0	0	0	0	0	0	0	0	10.7783269534261	0	0	0
0.9038567180490397	-204.9077900087091	932.8436656279042	0	0	0	0	0	0	0	0	0	0	0	0	10.33248777988734	0	0	0
0.9051847446434486	-217.1138961695945	928.6797810300759	0	0	0	0	0	0	0	0	0	0	0	0	9.735440973715004	0	0	0
0.9065127712378575	-227.342759236405	928.6236874535011	0	0	0	0	0	0	0	0	0	0	0	0	9.274286440004207	0	0	0
0.9078407978322662	-238.4017972260204	930.5948719523803	0	0	0	0	0	0	0	0	0	0	0	0	8.81555925915103	0	0	0
0.9091688244266751	-245.8884840180585	936.1881754639793	0	0	0	0	0	0	0	0	0	0	0	0	8.539956256836609	0	0	0
0.910496851021084	-252.0171222653574	943.6772062379403	0	0	0	0	0	0	0	0	0	0	0	0	8.341266828719808	0	0	0
0.9118248776154929	-254.7466132836793	953.9144075478962	0	0	0	0	0	0	0	0	0	0	0	0	8.306655660996375	0	0	0
0.9131529042099018	-255.5787505691801	965.784362107377	0	0	0	0	0	0	0	0	0	0	0	0	8.365274022257941	0	0	0
0.9144809308043107	-253.6113534695536	979.7981278037861	0	0	0	0	0	0	0	0	0	0	0	0	8.558759956917175	0	0	0
0.9158089573987195	-249.8183749309674	995.333664101692	0	0	0	0	0	0	0	0	0	0	0	0	8.842940223781438	0	0	0
0.9171369839931284	-243.7659970618863	1012.660046631711	0	0	0	0	0	0	0	0	0	0	0	0	9.238510537595081	0	0	0
0.9184650105875373	-236.1032319532211	1031.42211285913	0	0	0	0	0	0	0	0	0	0	0	0	9.71692103542145	0	0	0
0.9197930371819462	-227.2531242884642	1052.616469121573	0	0	0	0	0	0	0	0	0	0	0	0	10.2809790681232	0	0	0
0.9211210637763551	-216.8079944672845	1076.225968076759	0	0	0	0	0	0	0	0	0	0	0	0	10.94496473254363	0	0	0
0.9224490903707639	-204.0129394760534	1101.222646576482	0	0	0	0	0	0	0	0	0	0	0	0	11.71805171801399	0	0	0
0.9237771169651727	-189.8169466921221	1127.124513014306	0	0	0	0	0	0	0	0	0	0	0	0	12.5581936991872	0	0	0
0.9251051435595816	-174.2473662976905	1153.714318839485	0	0	0	0	0	0	0	0	0	0	0	0	13.46050429050767	0	0	0
0.9264331701539905	-157.7598486315326	1180.603658649675	0	0	0	0	0	0	0	0	0	0	0	0	14.40174387312407	0	0	0
0.9277611967483994	-140.5003747051264	1207.800910353488	0	0	0	0	0	0	0	0	0	0	0	0	15.37643880873384	0	0	0
0.9290892233428083	-122.6084934014216	1235.079743527589	0	0	0	0	0	0	0	0	0	0	0	0	16.37534116064941	0	0	0
0.9304172499372172	-104.20270573533	1262.444769777218	0	0	0	0	0	0	0	0	0	0	0	0	17.39386239518865	0	0	0
0.9317452765316261	-85.30345486181757	1289.750887691038	0	0	0	0	0	0	0	0	0	0	0	0	18.42844520202054	0	0	0
0.9330733031260349	-65.75113223534005	1316.593818990852	0	0	0	0	0	0	0	0	0	0	0	0	19.47772617179586	0	0	0
0.9344013297204438	-45.8799350604009	1342.851250088589	0	0	0	0	0	0	0	0	0	0	0	0	20.52728804693303	0	0	0
0.9357293563148527	-25.74477924284656	1368.630623113899	0	0	0	0	0	0	0	0	0	0	0	0	21.57658072018727	0	0	0
0.9370573829092615	-5.362582665117645	1393.96602307836	0	0	0	0	0	0	0	0	0	0	0	0	22.6252385353802	0	0	0
0.9383854095036704	15.22640263563517	1419.152664782026	0	0	0	0	0	0	0	0	0	0	0	0	23.67633761686228	0	0	0
0.9397134360980793	36.19554108508171	1444.369462184738	0	0	0	0	0	0	0	0	0	0	0	0	24.73875491186877	0	0	0
0.9410414626924881	57.70225265360788	1469.809614656631	0	0	0	0	0	0	0	0	0	0	0	0	25.82098499175532	0	0	0
0.942369489286897	79.8528456245042	1495.796438336126	0	0	0	0	0	0	0	0	0	0	0	0	26.93169486898913	0	0	0
0.9436975158813059	102.9697412780532	1522.664690606548	0	0	0	0	0	0	0	0	0	0	0	0	28.08742202555396	0	0	0
0.9450255424757148	127.1902406778941	1550.994478560543	0	0	0	0	0	0	0	0	0	0	0	0	29.30173364474314	0	0	0
0.9463535690701237	152.6046222086431	1581.258165492782	0	0	0	0	0	0	0	0	0	0	0	0	30.58455180932192	0	0	0
0.9476815956645326	179.4611038592521	1613.82885682264	0	0	0	0	0	0	0	0	0	0	0	0	31.94970400705579	0	0	0
0.9490096222589415	207.3306364398564	1648.532403614202	0	0	0	0	0	0	0	0	0	0	0	0	33.37772646953204	0	0	0
0.9503376488533503	236.1731474905931	1684.735834077402	0	0	0	0	0	0	0	0	0	0	0	0	34.85607850710475	0	0	0
0.9516656754477592	265.6084699179033	1721.825044910489	0	0	0	0	0	0	0	0	0	0	0	0	36.36037490687114	0	0	0
0.952993702042168	295.4063675870048	1758.974410308563	0	0	0	0	0	0	0	0	0	0	0	0	37.8686138861336	0	0	0
0.9543217286365769	325.338879649296	1795.671983997585	0	0	0	0	0	0	0	0	0	0	0	0	39.36399854214645	0	0	0
0.9556497552309858	355.2499817903334	1831.369326934988	0	0	0	0	0	0	0	0	0	0	0	0	40.83200128533613	0	0	0
0.9569777818253947	385.0146087948564	1865.675848849928	0	0	0	0	0	0	0	0	0	0	0	0	42.26185279119152	0	0	0
0.9583058084198035	414.5535758766304	1898.233480607086	0	0	0	0	0	0	0	0	0	0	0	0	43.64510358653584	0	0	0
0.9596338350142124	443.8188771939139	1928.699766661159	0	0	0	0	0	0	0	0	0	0	0	0	44.97485220034982	0	0	0
0.9609618616086213	472.7546406787764	1956.800109574753	0	0	0	0	0	0	0	0	0	0	0	0	46.24505875675018	0	0	0
0.9622898882030302	501.3316455400969	1982.255778271684	0	0	0	0	0	0	0	0	0	0	0	0	47.45075508561706	0	0	0
0.9636179147974391	529.5451255686928	2004.786940331598	0	0	0	0	0	0	0	0	0	0	0	0	48.58796355919466	0	0	0
0.964945941391848	557.5517074869098	2023.931701816565	0	0	0	0	0	0	0	0	0	0	0	0	49.65613043851332	0	0	0
0.9662739679862569	585.8483738077497	2038.76162215646	0	0	0	0	0	0	0	0	0	0	0	0	50.66064403552627	0	0	0
0.9676019945806656	614.7798675489946	2048.400080403896	0	0	0	0	0	0	0	0	0	0	0	0	51.60277516241239	0	0	0
0.9689300211750745	644.8799996488705	2051.643787823039	0	0	0	0	0	0	0	0	0	0	0	0	52.48669629225908	0	0	0
0.9702580477694834	675.6705872445696	2048.147544975174	0	0	0	0	0	0	0	0	0	0	0	0	53.29265811607321	0	0	0
0.9715860743638923	706.4586734028268	2037.929580264803	0	0	0	0	0	0	0	0	0	0	0	0	53.99827589653964	0	0	0
0.9729141009583012	736.300549693266	2020.843347308339	0	0	0	0	0	0	0	0	0	0	0	0	54.56981098536827	0	0	0
0.9742421275527101	763.825691417895	1997.074344483224	0	0	0	0	0	0	0	0	0	0	0	0	54.96235179489045	0	0	0
0.9755701541471189	787.9365160132554	1966.646489989181	0	0	0	0	0	0	0	0	0	0	0	0	55.13859311582738	0	0	0
0.9768981807415278	808.5836593134969	1927.207838266747	0	0	0	0	0	0	0	0	0	0	0	0	55.06907995147192	0	0	0
0.9782262073359367	823.3943536011304	1878.857392576389	0	0	0	0	0	0	0	0	0	0	0	0	54.67197826548646	0	0	0
0.9795542339303456	831.9103864572345	1820.761473520266	0	0	0	0	0	0	0	0	0	0	0	0	53.92465550922799	0	0	0
0.9808822605247545	834.0105906187756	1751.897447526072	0	0	0	0	0	0	0	0	0	0	0	0	52.81606863765469	0	0	0
0.9822102871191634	828.5658011940844	1673.908580479344	0	0	0	0	0	0	0	0	0	0	0	0	51.33120222350583	0	0	0
0.9835383137135723	815.4993040456528	1587.770787193512	0	0	0	0	0	0	0	0	0	0	0	0	49.48503840470416	0	0	0
0.984866340307981	795.04858238264	1494.328306499216	0	0	0	0	0	0	0	0	0	0	0	0	47.30246606035575	0	0	0
0.9861943669023899	768.4077066044391	1393.42727837001	0	0	0	0	0	0	0	0	0	0	0	0	44.83390339853822	0	0	0
0.9875223934967988	735.84835638697	1285.06935750173	0	0	0	0	0	0	0	0	0	0	0	0	42.09792796643305	0	0	0
0.9888504200912077	698.4718210914833	1171.978150263149	0	0	0	0	0	0	0	0	0	0	0	0	39.1742577307384	0	0	0
0.9901784466856166	656.7098431165136	1057.288708132081	0	0	0	0	0	0	0	0	0	0	0	0	36.11739970756871	0	0	0
0.9915064732800254	609.3286779547783	940.8947000178807	0	0	0	0	0	0	0	0	0	0	0	0	32.88119429745611	0	0	0
0.9928344998744343	555.9392574033205	822.552592388239	0	0	0	0	0	0	0	0	0	0	0	0	29.45097275426765	0	0	0
0.9941625264688432	470.0423799550752	680.3964960487452	0	0	0	0	0	0	0	0	0	0	0	0	24.58098086708538	0	0	0
0.9954905530632521	336.2649038370273	490.2743688782479	0	0	0	0	0	0	0	0	0	0	0	0	17.47218462125795	0	0	0
0.996818579657661	198.0530040519648	289.7008007313027	0	0	0	0	0	0	0	0	0	0	0	0	10.21197635658193	0	0	0
0.9981466062520699	81.43205188366473	113.6195774599257	0	0	0	0	0	0	0	0	0	0	0	0	4.126400777817539	0	0	0
0.9994746328464787	-9.150999476966291	-11.13594471835324	0	0	0	0	0	0	0	0	0	0	0	0	-0.4500497246019451	0	0	0
1.000802659440888	-2.797591146317967e-05	-0.0004353599172749081	0	0	0	0	0	0	0	0	0	0	0	0	-3.527007129363759e-06	0	0	0
1.002130686035297	2.248742267413824e-13	-2.185120356881579e-13	0	0	0	0	0	0	0	0	0	0	0	0	8.588197883634759e-15	0	0	0
1.003458712629705	0	0	0	0	0	0	0	0	0	0	0	0	0	0	0	0	0	0
1.004786739224114	0	0	0	0	0	0	0	0	0	0	0	0	0	0	0	0	0	0
1.006114765818523	0	0	0	0	0	0	0	0	0	0	0	0	0	0	0	0	0	0
1.007442792412932	0	0	0	0	0	0	0	0	0	0	0	0	0	0	0	0	0	0
1.008770819007341	0	0	0	0	0	0	0	0	0	0	0	0	0	0	0	0	0	0
1.01009884560175	0	0	0	0	0	0	0	0	0	0	0	0	0	0	0	0	0	0
1.011426872196159	0	0	0	0	0	0	0	0	0	0	0	0	0	0	0	0	0	0
1.012754898790567	0	0	0	0	0	0	0	0	0	0	0	0	0	0	0	0	0	0
